<svg width="32" height="32" viewBox="0 0 32 32" fill="none" xmlns="http://www.w3.org/2000/svg">
<g filter="url(#filter0_d_172253_906)">
<rect width="24" height="24" transform="translate(4)" fill="#1C1C21"/>
<path fill-rule="evenodd" clip-rule="evenodd" d="M7.29289 3.29289C7.68342 2.90237 8.31658 2.90237 8.70711 3.29289L16 10.5858L23.2929 3.29289C23.6834 2.90237 24.3166 2.90237 24.7071 3.29289C25.0976 3.68342 25.0976 4.31658 24.7071 4.70711L17.4142 12L24.7071 19.2929C25.0976 19.6834 25.0976 20.3166 24.7071 20.7071C24.3166 21.0976 23.6834 21.0976 23.2929 20.7071L16 13.4142L8.70711 20.7071C8.31658 21.0976 7.68342 21.0976 7.29289 20.7071C6.90237 20.3166 6.90237 19.6834 7.29289 19.2929L14.5858 12L7.29289 4.70711C6.90237 4.31658 6.90237 3.68342 7.29289 3.29289Z" fill="#F2F2F3"/>
</g>
<defs>
<filter id="filter0_d_172253_906" x="0" y="0" width="32" height="32" filterUnits="userSpaceOnUse" color-interpolation-filters="sRGB">
<feFlood flood-opacity="0" result="BackgroundImageFix"/>
<feColorMatrix in="SourceAlpha" type="matrix" values="0 0 0 0 0 0 0 0 0 0 0 0 0 0 0 0 0 0 127 0" result="hardAlpha"/>
<feOffset dy="4"/>
<feGaussianBlur stdDeviation="2"/>
<feColorMatrix type="matrix" values="0 0 0 0 0 0 0 0 0 0 0 0 0 0 0 0 0 0 0.25 0"/>
<feBlend mode="normal" in2="BackgroundImageFix" result="effect1_dropShadow_172253_906"/>
<feBlend mode="normal" in="SourceGraphic" in2="effect1_dropShadow_172253_906" result="shape"/>
</filter>
</defs>
</svg>
